<svg xmlns="http://www.w3.org/2000/svg" width="900" height="340" viewBox="0 0 900 340">
<rect width="100%" height="100%" fill="white"/>
<text x="450.0" y="35" font-size="22" text-anchor="middle" font-family="Arial">antiguedad_biblioteca - boxplot IQR</text>
<line x1="90" y1="170" x2="840" y2="170" stroke="#333"/>
<line x1="90.00" y1="135" x2="90.00" y2="205" stroke="#333"/>
<line x1="309.37" y1="135" x2="309.37" y2="205" stroke="#333"/>
<rect x="146.32" y="130.0" width="65.22" height="80" fill="#72b7b2" stroke="#333"/>
<line x1="170.04" y1="130.0" x2="170.04" y2="210.0" stroke="#111" stroke-width="3"/>
<circle cx="362.73" cy="170" r="4" fill="#e45756" opacity="0.75"/><circle cx="318.26" cy="170" r="4" fill="#e45756" opacity="0.75"/><circle cx="330.12" cy="170" r="4" fill="#e45756" opacity="0.75"/><circle cx="546.52" cy="170" r="4" fill="#e45756" opacity="0.75"/><circle cx="490.20" cy="170" r="4" fill="#e45756" opacity="0.75"/><circle cx="837.04" cy="170" r="4" fill="#e45756" opacity="0.75"/><circle cx="362.73" cy="170" r="4" fill="#e45756" opacity="0.75"/><circle cx="522.81" cy="170" r="4" fill="#e45756" opacity="0.75"/><circle cx="493.16" cy="170" r="4" fill="#e45756" opacity="0.75"/><circle cx="475.38" cy="170" r="4" fill="#e45756" opacity="0.75"/><circle cx="840.00" cy="170" r="4" fill="#e45756" opacity="0.75"/><circle cx="487.23" cy="170" r="4" fill="#e45756" opacity="0.75"/><circle cx="365.69" cy="170" r="4" fill="#e45756" opacity="0.75"/><circle cx="377.55" cy="170" r="4" fill="#e45756" opacity="0.75"/><circle cx="356.80" cy="170" r="4" fill="#e45756" opacity="0.75"/><circle cx="513.91" cy="170" r="4" fill="#e45756" opacity="0.75"/><circle cx="439.80" cy="170" r="4" fill="#e45756" opacity="0.75"/><circle cx="427.94" cy="170" r="4" fill="#e45756" opacity="0.75"/><circle cx="383.48" cy="170" r="4" fill="#e45756" opacity="0.75"/><circle cx="653.24" cy="170" r="4" fill="#e45756" opacity="0.75"/><circle cx="401.26" cy="170" r="4" fill="#e45756" opacity="0.75"/><circle cx="404.23" cy="170" r="4" fill="#e45756" opacity="0.75"/><circle cx="383.48" cy="170" r="4" fill="#e45756" opacity="0.75"/><circle cx="374.58" cy="170" r="4" fill="#e45756" opacity="0.75"/><circle cx="356.80" cy="170" r="4" fill="#e45756" opacity="0.75"/><circle cx="407.19" cy="170" r="4" fill="#e45756" opacity="0.75"/><circle cx="353.83" cy="170" r="4" fill="#e45756" opacity="0.75"/><circle cx="312.33" cy="170" r="4" fill="#e45756" opacity="0.75"/><circle cx="359.76" cy="170" r="4" fill="#e45756" opacity="0.75"/>
<text x="90" y="285" font-size="12" text-anchor="middle">1.00</text>
<text x="840" y="285" font-size="12" text-anchor="middle">254.00</text>
<text x="146.32" y="115" font-size="12" text-anchor="middle">Q1 20.00</text>
<text x="170.04" y="242" font-size="12" text-anchor="middle">Mediana 28.00</text>
<text x="211.54" y="115" font-size="12" text-anchor="middle">Q3 42.00</text>
<text x="450.0" y="325" font-size="13" text-anchor="middle">Puntos rojos: posibles outliers segun limites IQR</text>
</svg>