<svg xmlns="http://www.w3.org/2000/svg" width="900" height="640" viewBox="0 0 900 640">
<rect width="100%" height="100%" fill="white"/>
<text x="450.0" y="38" font-size="24" text-anchor="middle" font-family="Arial">Clusters K-Means proyectados con PCA</text>
<line x1="80" y1="560" x2="820" y2="560" stroke="#333"/>
<line x1="80" y1="80" x2="80" y2="560" stroke="#333"/>
<text x="450.0" y="615" font-size="13" text-anchor="middle">Componente 1 (48.3% varianza)</text>
<text x="25" y="320.0" font-size="13" text-anchor="middle" transform="rotate(-90 25 320.0)">Componente 2 (14.7% varianza)</text>
<circle cx="123.22" cy="515.29" r="4" fill="#f58518" fill-opacity="0.72"/><circle cx="106.78" cy="462.87" r="4" fill="#f58518" fill-opacity="0.72"/><circle cx="92.11" cy="505.92" r="4" fill="#f58518" fill-opacity="0.72"/><circle cx="122.72" cy="416.08" r="4" fill="#f58518" fill-opacity="0.72"/><circle cx="138.02" cy="371.16" r="4" fill="#f58518" fill-opacity="0.72"/><circle cx="124.19" cy="517.14" r="4" fill="#f58518" fill-opacity="0.72"/><circle cx="110.30" cy="457.24" r="4" fill="#f58518" fill-opacity="0.72"/><circle cx="276.09" cy="492.68" r="4" fill="#f58518" fill-opacity="0.72"/><circle cx="239.23" cy="534.78" r="4" fill="#f58518" fill-opacity="0.72"/><circle cx="358.62" cy="538.85" r="4" fill="#f58518" fill-opacity="0.72"/><circle cx="247.51" cy="510.44" r="4" fill="#f58518" fill-opacity="0.72"/><circle cx="252.61" cy="495.47" r="4" fill="#f58518" fill-opacity="0.72"/><circle cx="257.08" cy="482.37" r="4" fill="#f58518" fill-opacity="0.72"/><circle cx="251.98" cy="497.34" r="4" fill="#f58518" fill-opacity="0.72"/><circle cx="377.84" cy="520.46" r="4" fill="#f58518" fill-opacity="0.72"/><circle cx="317.37" cy="525.19" r="4" fill="#f58518" fill-opacity="0.72"/><circle cx="123.22" cy="515.29" r="4" fill="#f58518" fill-opacity="0.72"/><circle cx="202.56" cy="472.12" r="4" fill="#f58518" fill-opacity="0.72"/><circle cx="100.40" cy="481.59" r="4" fill="#f58518" fill-opacity="0.72"/><circle cx="189.59" cy="523.17" r="4" fill="#f58518" fill-opacity="0.72"/><circle cx="661.80" cy="506.40" r="4" fill="#54a24b" fill-opacity="0.72"/><circle cx="655.47" cy="506.76" r="4" fill="#54a24b" fill-opacity="0.72"/><circle cx="678.28" cy="540.46" r="4" fill="#54a24b" fill-opacity="0.72"/><circle cx="569.04" cy="524.81" r="4" fill="#54a24b" fill-opacity="0.72"/><circle cx="661.80" cy="506.40" r="4" fill="#54a24b" fill-opacity="0.72"/><circle cx="642.09" cy="530.19" r="4" fill="#54a24b" fill-opacity="0.72"/><circle cx="643.06" cy="532.05" r="4" fill="#54a24b" fill-opacity="0.72"/><circle cx="702.56" cy="525.46" r="4" fill="#54a24b" fill-opacity="0.72"/><circle cx="669.29" cy="520.96" r="4" fill="#54a24b" fill-opacity="0.72"/><circle cx="707.79" cy="409.41" r="4" fill="#4c78a8" fill-opacity="0.72"/><circle cx="703.52" cy="527.32" r="4" fill="#54a24b" fill-opacity="0.72"/><circle cx="710.34" cy="401.92" r="4" fill="#4c78a8" fill-opacity="0.72"/><circle cx="660.48" cy="536.60" r="4" fill="#54a24b" fill-opacity="0.72"/><circle cx="689.45" cy="533.48" r="4" fill="#54a24b" fill-opacity="0.72"/><circle cx="702.56" cy="525.46" r="4" fill="#54a24b" fill-opacity="0.72"/><circle cx="703.52" cy="527.32" r="4" fill="#54a24b" fill-opacity="0.72"/><circle cx="756.88" cy="265.29" r="4" fill="#4c78a8" fill-opacity="0.72"/><circle cx="642.09" cy="530.19" r="4" fill="#54a24b" fill-opacity="0.72"/><circle cx="744.77" cy="300.85" r="4" fill="#4c78a8" fill-opacity="0.72"/><circle cx="703.52" cy="527.32" r="4" fill="#54a24b" fill-opacity="0.72"/><circle cx="679.49" cy="491.01" r="4" fill="#54a24b" fill-opacity="0.72"/><circle cx="686.90" cy="533.78" r="4" fill="#54a24b" fill-opacity="0.72"/><circle cx="694.13" cy="538.49" r="4" fill="#54a24b" fill-opacity="0.72"/><circle cx="567.77" cy="528.55" r="4" fill="#54a24b" fill-opacity="0.72"/><circle cx="567.77" cy="528.55" r="4" fill="#54a24b" fill-opacity="0.72"/><circle cx="696.95" cy="441.23" r="4" fill="#54a24b" fill-opacity="0.72"/><circle cx="567.77" cy="528.55" r="4" fill="#54a24b" fill-opacity="0.72"/><circle cx="697.84" cy="537.81" r="4" fill="#54a24b" fill-opacity="0.72"/><circle cx="697.84" cy="537.81" r="4" fill="#54a24b" fill-opacity="0.72"/><circle cx="686.90" cy="533.78" r="4" fill="#54a24b" fill-opacity="0.72"/><circle cx="697.84" cy="537.81" r="4" fill="#54a24b" fill-opacity="0.72"/><circle cx="679.10" cy="493.63" r="4" fill="#54a24b" fill-opacity="0.72"/><circle cx="702.56" cy="525.46" r="4" fill="#54a24b" fill-opacity="0.72"/><circle cx="819.36" cy="81.87" r="4" fill="#4c78a8" fill-opacity="0.72"/><circle cx="703.52" cy="527.32" r="4" fill="#54a24b" fill-opacity="0.72"/><circle cx="656.89" cy="386.06" r="4" fill="#4c78a8" fill-opacity="0.72"/><circle cx="703.52" cy="527.32" r="4" fill="#54a24b" fill-opacity="0.72"/><circle cx="689.30" cy="463.69" r="4" fill="#54a24b" fill-opacity="0.72"/><circle cx="697.84" cy="537.81" r="4" fill="#54a24b" fill-opacity="0.72"/><circle cx="751.78" cy="280.27" r="4" fill="#4c78a8" fill-opacity="0.72"/><circle cx="697.84" cy="537.81" r="4" fill="#54a24b" fill-opacity="0.72"/><circle cx="703.52" cy="527.32" r="4" fill="#54a24b" fill-opacity="0.72"/><circle cx="745.41" cy="298.98" r="4" fill="#4c78a8" fill-opacity="0.72"/><circle cx="698.81" cy="539.67" r="4" fill="#54a24b" fill-opacity="0.72"/><circle cx="702.56" cy="525.46" r="4" fill="#54a24b" fill-opacity="0.72"/><circle cx="702.56" cy="525.46" r="4" fill="#54a24b" fill-opacity="0.72"/><circle cx="642.09" cy="530.19" r="4" fill="#54a24b" fill-opacity="0.72"/><circle cx="697.84" cy="537.81" r="4" fill="#54a24b" fill-opacity="0.72"/><circle cx="703.52" cy="527.32" r="4" fill="#54a24b" fill-opacity="0.72"/><circle cx="703.52" cy="527.32" r="4" fill="#54a24b" fill-opacity="0.72"/><circle cx="703.52" cy="527.32" r="4" fill="#54a24b" fill-opacity="0.72"/><circle cx="741.58" cy="310.21" r="4" fill="#4c78a8" fill-opacity="0.72"/><circle cx="820.00" cy="80.00" r="4" fill="#4c78a8" fill-opacity="0.72"/><circle cx="744.13" cy="302.72" r="4" fill="#4c78a8" fill-opacity="0.72"/><circle cx="625.01" cy="479.65" r="4" fill="#54a24b" fill-opacity="0.72"/><circle cx="679.49" cy="491.01" r="4" fill="#54a24b" fill-opacity="0.72"/><circle cx="702.56" cy="525.46" r="4" fill="#54a24b" fill-opacity="0.72"/><circle cx="689.01" cy="536.64" r="4" fill="#54a24b" fill-opacity="0.72"/><circle cx="703.52" cy="527.32" r="4" fill="#54a24b" fill-opacity="0.72"/><circle cx="697.84" cy="537.81" r="4" fill="#54a24b" fill-opacity="0.72"/><circle cx="703.52" cy="527.32" r="4" fill="#54a24b" fill-opacity="0.72"/><circle cx="682.04" cy="483.52" r="4" fill="#54a24b" fill-opacity="0.72"/><circle cx="697.84" cy="537.81" r="4" fill="#54a24b" fill-opacity="0.72"/><circle cx="697.84" cy="537.81" r="4" fill="#54a24b" fill-opacity="0.72"/><circle cx="702.56" cy="525.46" r="4" fill="#54a24b" fill-opacity="0.72"/><circle cx="697.84" cy="537.81" r="4" fill="#54a24b" fill-opacity="0.72"/><circle cx="702.56" cy="525.46" r="4" fill="#54a24b" fill-opacity="0.72"/><circle cx="697.84" cy="537.81" r="4" fill="#54a24b" fill-opacity="0.72"/><circle cx="697.84" cy="537.81" r="4" fill="#54a24b" fill-opacity="0.72"/><circle cx="703.52" cy="527.32" r="4" fill="#54a24b" fill-opacity="0.72"/><circle cx="685.17" cy="480.51" r="4" fill="#54a24b" fill-opacity="0.72"/><circle cx="697.84" cy="537.81" r="4" fill="#54a24b" fill-opacity="0.72"/><circle cx="702.56" cy="525.46" r="4" fill="#54a24b" fill-opacity="0.72"/><circle cx="697.84" cy="537.81" r="4" fill="#54a24b" fill-opacity="0.72"/><circle cx="657.53" cy="384.19" r="4" fill="#4c78a8" fill-opacity="0.72"/><circle cx="697.84" cy="537.81" r="4" fill="#54a24b" fill-opacity="0.72"/><circle cx="682.93" cy="482.40" r="4" fill="#54a24b" fill-opacity="0.72"/><circle cx="642.09" cy="530.19" r="4" fill="#54a24b" fill-opacity="0.72"/><circle cx="697.84" cy="537.81" r="4" fill="#54a24b" fill-opacity="0.72"/><circle cx="669.93" cy="519.08" r="4" fill="#54a24b" fill-opacity="0.72"/><circle cx="690.42" cy="535.33" r="4" fill="#54a24b" fill-opacity="0.72"/><circle cx="703.52" cy="527.32" r="4" fill="#54a24b" fill-opacity="0.72"/><circle cx="720.54" cy="371.98" r="4" fill="#4c78a8" fill-opacity="0.72"/><circle cx="702.56" cy="525.46" r="4" fill="#54a24b" fill-opacity="0.72"/><circle cx="698.81" cy="539.67" r="4" fill="#54a24b" fill-opacity="0.72"/><circle cx="676.51" cy="444.99" r="4" fill="#54a24b" fill-opacity="0.72"/><circle cx="664.07" cy="491.07" r="4" fill="#54a24b" fill-opacity="0.72"/><circle cx="698.81" cy="539.67" r="4" fill="#54a24b" fill-opacity="0.72"/><circle cx="712.34" cy="399.28" r="4" fill="#4c78a8" fill-opacity="0.72"/><circle cx="617.36" cy="502.11" r="4" fill="#54a24b" fill-opacity="0.72"/><circle cx="711.61" cy="291.56" r="4" fill="#4c78a8" fill-opacity="0.72"/><circle cx="664.29" cy="531.15" r="4" fill="#54a24b" fill-opacity="0.72"/><circle cx="642.09" cy="530.19" r="4" fill="#54a24b" fill-opacity="0.72"/><circle cx="697.84" cy="537.81" r="4" fill="#54a24b" fill-opacity="0.72"/><circle cx="642.09" cy="530.19" r="4" fill="#54a24b" fill-opacity="0.72"/><circle cx="566.49" cy="532.29" r="4" fill="#54a24b" fill-opacity="0.72"/><circle cx="567.13" cy="530.42" r="4" fill="#54a24b" fill-opacity="0.72"/><circle cx="697.84" cy="537.81" r="4" fill="#54a24b" fill-opacity="0.72"/><circle cx="565.86" cy="534.16" r="4" fill="#54a24b" fill-opacity="0.72"/><circle cx="566.49" cy="532.29" r="4" fill="#54a24b" fill-opacity="0.72"/><circle cx="692.53" cy="532.55" r="4" fill="#54a24b" fill-opacity="0.72"/><circle cx="697.84" cy="537.81" r="4" fill="#54a24b" fill-opacity="0.72"/><circle cx="642.09" cy="530.19" r="4" fill="#54a24b" fill-opacity="0.72"/><circle cx="697.84" cy="537.81" r="4" fill="#54a24b" fill-opacity="0.72"/><circle cx="696.64" cy="340.21" r="4" fill="#4c78a8" fill-opacity="0.72"/><circle cx="709.77" cy="354.10" r="4" fill="#4c78a8" fill-opacity="0.72"/><circle cx="642.09" cy="530.19" r="4" fill="#54a24b" fill-opacity="0.72"/><circle cx="697.84" cy="537.81" r="4" fill="#54a24b" fill-opacity="0.72"/><circle cx="698.81" cy="539.67" r="4" fill="#54a24b" fill-opacity="0.72"/><circle cx="683.34" cy="543.85" r="4" fill="#54a24b" fill-opacity="0.72"/><circle cx="679.74" cy="491.76" r="4" fill="#54a24b" fill-opacity="0.72"/><circle cx="626.92" cy="474.03" r="4" fill="#54a24b" fill-opacity="0.72"/><circle cx="697.84" cy="537.81" r="4" fill="#54a24b" fill-opacity="0.72"/><circle cx="703.52" cy="527.32" r="4" fill="#54a24b" fill-opacity="0.72"/><circle cx="662.92" cy="539.67" r="4" fill="#54a24b" fill-opacity="0.72"/><circle cx="703.52" cy="527.32" r="4" fill="#54a24b" fill-opacity="0.72"/><circle cx="620.55" cy="492.75" r="4" fill="#54a24b" fill-opacity="0.72"/><circle cx="681.02" cy="488.02" r="4" fill="#54a24b" fill-opacity="0.72"/><circle cx="565.22" cy="536.04" r="4" fill="#54a24b" fill-opacity="0.72"/><circle cx="564.58" cy="537.91" r="4" fill="#54a24b" fill-opacity="0.72"/><circle cx="557.57" cy="558.50" r="4" fill="#54a24b" fill-opacity="0.72"/><circle cx="690.42" cy="535.33" r="4" fill="#54a24b" fill-opacity="0.72"/><circle cx="681.02" cy="488.02" r="4" fill="#54a24b" fill-opacity="0.72"/><circle cx="629.47" cy="466.55" r="4" fill="#54a24b" fill-opacity="0.72"/><circle cx="689.94" cy="461.81" r="4" fill="#54a24b" fill-opacity="0.72"/><circle cx="702.56" cy="525.46" r="4" fill="#54a24b" fill-opacity="0.72"/><circle cx="703.52" cy="527.32" r="4" fill="#54a24b" fill-opacity="0.72"/><circle cx="629.36" cy="533.00" r="4" fill="#54a24b" fill-opacity="0.72"/><circle cx="697.84" cy="537.81" r="4" fill="#54a24b" fill-opacity="0.72"/><circle cx="642.09" cy="530.19" r="4" fill="#54a24b" fill-opacity="0.72"/><circle cx="572.87" cy="513.58" r="4" fill="#54a24b" fill-opacity="0.72"/><circle cx="601.42" cy="530.43" r="4" fill="#54a24b" fill-opacity="0.72"/><circle cx="577.33" cy="500.48" r="4" fill="#54a24b" fill-opacity="0.72"/><circle cx="573.51" cy="511.70" r="4" fill="#54a24b" fill-opacity="0.72"/><circle cx="601.42" cy="530.43" r="4" fill="#54a24b" fill-opacity="0.72"/><circle cx="721.82" cy="368.23" r="4" fill="#4c78a8" fill-opacity="0.72"/><circle cx="642.09" cy="530.19" r="4" fill="#54a24b" fill-opacity="0.72"/><circle cx="571.59" cy="517.32" r="4" fill="#54a24b" fill-opacity="0.72"/><circle cx="601.42" cy="530.43" r="4" fill="#54a24b" fill-opacity="0.72"/><circle cx="570.32" cy="521.06" r="4" fill="#54a24b" fill-opacity="0.72"/><circle cx="593.91" cy="451.81" r="4" fill="#54a24b" fill-opacity="0.72"/><circle cx="574.14" cy="509.83" r="4" fill="#54a24b" fill-opacity="0.72"/><circle cx="572.23" cy="515.45" r="4" fill="#54a24b" fill-opacity="0.72"/><circle cx="579.88" cy="492.99" r="4" fill="#54a24b" fill-opacity="0.72"/><circle cx="601.42" cy="530.43" r="4" fill="#54a24b" fill-opacity="0.72"/><circle cx="601.42" cy="530.43" r="4" fill="#54a24b" fill-opacity="0.72"/><circle cx="601.42" cy="530.43" r="4" fill="#54a24b" fill-opacity="0.72"/><circle cx="601.42" cy="530.43" r="4" fill="#54a24b" fill-opacity="0.72"/><circle cx="572.87" cy="513.58" r="4" fill="#54a24b" fill-opacity="0.72"/><circle cx="577.33" cy="500.48" r="4" fill="#54a24b" fill-opacity="0.72"/><circle cx="601.42" cy="530.43" r="4" fill="#54a24b" fill-opacity="0.72"/><circle cx="573.51" cy="511.70" r="4" fill="#54a24b" fill-opacity="0.72"/><circle cx="573.51" cy="511.70" r="4" fill="#54a24b" fill-opacity="0.72"/><circle cx="601.42" cy="530.43" r="4" fill="#54a24b" fill-opacity="0.72"/><circle cx="601.42" cy="530.43" r="4" fill="#54a24b" fill-opacity="0.72"/><circle cx="766.73" cy="205.93" r="4" fill="#4c78a8" fill-opacity="0.72"/><circle cx="570.96" cy="519.19" r="4" fill="#54a24b" fill-opacity="0.72"/><circle cx="680.95" cy="539.40" r="4" fill="#54a24b" fill-opacity="0.72"/><circle cx="689.45" cy="533.48" r="4" fill="#54a24b" fill-opacity="0.72"/><circle cx="688.15" cy="536.20" r="4" fill="#54a24b" fill-opacity="0.72"/><circle cx="694.13" cy="538.49" r="4" fill="#54a24b" fill-opacity="0.72"/><circle cx="689.45" cy="533.48" r="4" fill="#54a24b" fill-opacity="0.72"/><circle cx="666.90" cy="491.43" r="4" fill="#54a24b" fill-opacity="0.72"/><circle cx="683.34" cy="543.85" r="4" fill="#54a24b" fill-opacity="0.72"/><circle cx="683.34" cy="543.85" r="4" fill="#54a24b" fill-opacity="0.72"/><circle cx="683.34" cy="543.85" r="4" fill="#54a24b" fill-opacity="0.72"/><circle cx="683.34" cy="543.85" r="4" fill="#54a24b" fill-opacity="0.72"/><circle cx="689.45" cy="533.48" r="4" fill="#54a24b" fill-opacity="0.72"/><circle cx="690.42" cy="535.33" r="4" fill="#54a24b" fill-opacity="0.72"/><circle cx="680.36" cy="464.20" r="4" fill="#54a24b" fill-opacity="0.72"/><circle cx="689.45" cy="533.48" r="4" fill="#54a24b" fill-opacity="0.72"/><circle cx="694.13" cy="538.49" r="4" fill="#54a24b" fill-opacity="0.72"/><circle cx="694.13" cy="538.49" r="4" fill="#54a24b" fill-opacity="0.72"/><circle cx="571.59" cy="517.32" r="4" fill="#54a24b" fill-opacity="0.72"/><circle cx="643.23" cy="518.57" r="4" fill="#54a24b" fill-opacity="0.72"/><circle cx="570.32" cy="521.06" r="4" fill="#54a24b" fill-opacity="0.72"/><circle cx="575.42" cy="506.09" r="4" fill="#54a24b" fill-opacity="0.72"/><circle cx="569.04" cy="524.81" r="4" fill="#54a24b" fill-opacity="0.72"/><circle cx="569.04" cy="524.81" r="4" fill="#54a24b" fill-opacity="0.72"/><circle cx="576.69" cy="502.35" r="4" fill="#54a24b" fill-opacity="0.72"/><circle cx="630.59" cy="436.22" r="4" fill="#54a24b" fill-opacity="0.72"/><circle cx="666.30" cy="474.94" r="4" fill="#54a24b" fill-opacity="0.72"/><circle cx="683.34" cy="543.85" r="4" fill="#54a24b" fill-opacity="0.72"/><circle cx="683.34" cy="543.85" r="4" fill="#54a24b" fill-opacity="0.72"/><circle cx="683.34" cy="543.85" r="4" fill="#54a24b" fill-opacity="0.72"/><circle cx="683.34" cy="543.85" r="4" fill="#54a24b" fill-opacity="0.72"/><circle cx="683.34" cy="543.85" r="4" fill="#54a24b" fill-opacity="0.72"/><circle cx="683.34" cy="543.85" r="4" fill="#54a24b" fill-opacity="0.72"/><circle cx="706.43" cy="375.39" r="4" fill="#4c78a8" fill-opacity="0.72"/><circle cx="683.34" cy="543.85" r="4" fill="#54a24b" fill-opacity="0.72"/><circle cx="683.34" cy="543.85" r="4" fill="#54a24b" fill-opacity="0.72"/><circle cx="683.34" cy="543.85" r="4" fill="#54a24b" fill-opacity="0.72"/><circle cx="683.34" cy="543.85" r="4" fill="#54a24b" fill-opacity="0.72"/><circle cx="678.28" cy="540.46" r="4" fill="#54a24b" fill-opacity="0.72"/><circle cx="661.80" cy="506.40" r="4" fill="#54a24b" fill-opacity="0.72"/><circle cx="678.28" cy="540.46" r="4" fill="#54a24b" fill-opacity="0.72"/><circle cx="678.28" cy="540.46" r="4" fill="#54a24b" fill-opacity="0.72"/><circle cx="678.28" cy="540.46" r="4" fill="#54a24b" fill-opacity="0.72"/><circle cx="678.28" cy="540.46" r="4" fill="#54a24b" fill-opacity="0.72"/><circle cx="678.28" cy="540.46" r="4" fill="#54a24b" fill-opacity="0.72"/><circle cx="678.28" cy="540.46" r="4" fill="#54a24b" fill-opacity="0.72"/><circle cx="642.09" cy="530.19" r="4" fill="#54a24b" fill-opacity="0.72"/><circle cx="656.06" cy="523.25" r="4" fill="#54a24b" fill-opacity="0.72"/><circle cx="686.85" cy="543.05" r="4" fill="#54a24b" fill-opacity="0.72"/><circle cx="678.28" cy="540.46" r="4" fill="#54a24b" fill-opacity="0.72"/><circle cx="655.43" cy="525.12" r="4" fill="#54a24b" fill-opacity="0.72"/><circle cx="683.34" cy="543.85" r="4" fill="#54a24b" fill-opacity="0.72"/><circle cx="683.34" cy="543.85" r="4" fill="#54a24b" fill-opacity="0.72"/><circle cx="683.34" cy="543.85" r="4" fill="#54a24b" fill-opacity="0.72"/><circle cx="683.34" cy="543.85" r="4" fill="#54a24b" fill-opacity="0.72"/><circle cx="683.34" cy="543.85" r="4" fill="#54a24b" fill-opacity="0.72"/><circle cx="683.34" cy="543.85" r="4" fill="#54a24b" fill-opacity="0.72"/><circle cx="683.34" cy="543.85" r="4" fill="#54a24b" fill-opacity="0.72"/><circle cx="683.34" cy="543.85" r="4" fill="#54a24b" fill-opacity="0.72"/><circle cx="123.22" cy="515.29" r="4" fill="#f58518" fill-opacity="0.72"/><circle cx="114.54" cy="446.05" r="4" fill="#f58518" fill-opacity="0.72"/><circle cx="83.64" cy="541.49" r="4" fill="#f58518" fill-opacity="0.72"/><circle cx="191.45" cy="512.20" r="4" fill="#f58518" fill-opacity="0.72"/><circle cx="125.24" cy="515.31" r="4" fill="#f58518" fill-opacity="0.72"/><circle cx="88.29" cy="517.15" r="4" fill="#f58518" fill-opacity="0.72"/><circle cx="90.53" cy="515.26" r="4" fill="#f58518" fill-opacity="0.72"/><circle cx="95.63" cy="500.29" r="4" fill="#f58518" fill-opacity="0.72"/><circle cx="96.61" cy="494.70" r="4" fill="#f58518" fill-opacity="0.72"/><circle cx="221.28" cy="524.53" r="4" fill="#f58518" fill-opacity="0.72"/><circle cx="93.39" cy="502.17" r="4" fill="#f58518" fill-opacity="0.72"/><circle cx="142.45" cy="515.22" r="4" fill="#f58518" fill-opacity="0.72"/><circle cx="146.94" cy="344.96" r="4" fill="#f58518" fill-opacity="0.72"/><circle cx="95.94" cy="494.69" r="4" fill="#f58518" fill-opacity="0.72"/><circle cx="164.56" cy="515.06" r="4" fill="#f58518" fill-opacity="0.72"/><circle cx="124.86" cy="517.15" r="4" fill="#f58518" fill-opacity="0.72"/><circle cx="123.22" cy="515.29" r="4" fill="#f58518" fill-opacity="0.72"/><circle cx="89.56" cy="513.40" r="4" fill="#f58518" fill-opacity="0.72"/><circle cx="174.54" cy="364.90" r="4" fill="#f58518" fill-opacity="0.72"/><circle cx="123.22" cy="515.29" r="4" fill="#f58518" fill-opacity="0.72"/><circle cx="287.83" cy="537.02" r="4" fill="#f58518" fill-opacity="0.72"/><circle cx="186.92" cy="478.67" r="4" fill="#f58518" fill-opacity="0.72"/><circle cx="96.58" cy="492.82" r="4" fill="#f58518" fill-opacity="0.72"/><circle cx="176.97" cy="522.63" r="4" fill="#f58518" fill-opacity="0.72"/><circle cx="258.89" cy="536.04" r="4" fill="#f58518" fill-opacity="0.72"/><circle cx="258.89" cy="536.04" r="4" fill="#f58518" fill-opacity="0.72"/><circle cx="258.89" cy="536.04" r="4" fill="#f58518" fill-opacity="0.72"/><circle cx="258.89" cy="536.04" r="4" fill="#f58518" fill-opacity="0.72"/><circle cx="258.89" cy="536.04" r="4" fill="#f58518" fill-opacity="0.72"/><circle cx="258.89" cy="536.04" r="4" fill="#f58518" fill-opacity="0.72"/><circle cx="242.82" cy="490.09" r="4" fill="#f58518" fill-opacity="0.72"/><circle cx="265.00" cy="525.67" r="4" fill="#f58518" fill-opacity="0.72"/><circle cx="194.18" cy="490.55" r="4" fill="#f58518" fill-opacity="0.72"/><circle cx="92.45" cy="509.64" r="4" fill="#f58518" fill-opacity="0.72"/><circle cx="123.22" cy="515.29" r="4" fill="#f58518" fill-opacity="0.72"/><circle cx="88.93" cy="515.28" r="4" fill="#f58518" fill-opacity="0.72"/><circle cx="283.91" cy="525.92" r="4" fill="#f58518" fill-opacity="0.72"/><circle cx="241.97" cy="548.37" r="4" fill="#f58518" fill-opacity="0.72"/><circle cx="250.26" cy="524.04" r="4" fill="#f58518" fill-opacity="0.72"/><circle cx="247.71" cy="531.52" r="4" fill="#f58518" fill-opacity="0.72"/><circle cx="241.97" cy="548.37" r="4" fill="#f58518" fill-opacity="0.72"/><circle cx="106.14" cy="464.74" r="4" fill="#f58518" fill-opacity="0.72"/><circle cx="114.43" cy="440.41" r="4" fill="#f58518" fill-opacity="0.72"/><circle cx="192.56" cy="501.62" r="4" fill="#f58518" fill-opacity="0.72"/><circle cx="123.22" cy="515.29" r="4" fill="#f58518" fill-opacity="0.72"/><circle cx="88.93" cy="515.28" r="4" fill="#f58518" fill-opacity="0.72"/><circle cx="173.51" cy="522.62" r="4" fill="#f58518" fill-opacity="0.72"/><circle cx="157.51" cy="522.20" r="4" fill="#f58518" fill-opacity="0.72"/><circle cx="226.07" cy="504.48" r="4" fill="#f58518" fill-opacity="0.72"/><circle cx="330.21" cy="535.10" r="4" fill="#f58518" fill-opacity="0.72"/><circle cx="349.77" cy="532.46" r="4" fill="#f58518" fill-opacity="0.72"/><circle cx="138.30" cy="509.35" r="4" fill="#f58518" fill-opacity="0.72"/><circle cx="145.95" cy="486.89" r="4" fill="#f58518" fill-opacity="0.72"/><circle cx="199.90" cy="513.80" r="4" fill="#f58518" fill-opacity="0.72"/><circle cx="102.95" cy="474.10" r="4" fill="#f58518" fill-opacity="0.72"/><circle cx="85.74" cy="524.63" r="4" fill="#f58518" fill-opacity="0.72"/><circle cx="169.86" cy="508.35" r="4" fill="#f58518" fill-opacity="0.72"/><circle cx="174.33" cy="495.24" r="4" fill="#f58518" fill-opacity="0.72"/><circle cx="285.78" cy="529.10" r="4" fill="#f58518" fill-opacity="0.72"/><circle cx="300.19" cy="518.36" r="4" fill="#f58518" fill-opacity="0.72"/><circle cx="167.95" cy="513.96" r="4" fill="#f58518" fill-opacity="0.72"/><circle cx="224.56" cy="466.93" r="4" fill="#f58518" fill-opacity="0.72"/><circle cx="261.92" cy="524.04" r="4" fill="#f58518" fill-opacity="0.72"/><circle cx="98.57" cy="490.96" r="4" fill="#f58518" fill-opacity="0.72"/><circle cx="86.45" cy="526.52" r="4" fill="#f58518" fill-opacity="0.72"/><circle cx="97.93" cy="492.83" r="4" fill="#f58518" fill-opacity="0.72"/><circle cx="177.22" cy="501.07" r="4" fill="#f58518" fill-opacity="0.72"/><circle cx="161.28" cy="547.86" r="4" fill="#f58518" fill-opacity="0.72"/><circle cx="176.58" cy="502.94" r="4" fill="#f58518" fill-opacity="0.72"/><circle cx="248.94" cy="544.43" r="4" fill="#f58518" fill-opacity="0.72"/><circle cx="245.49" cy="525.15" r="4" fill="#f58518" fill-opacity="0.72"/><circle cx="93.39" cy="502.17" r="4" fill="#f58518" fill-opacity="0.72"/><circle cx="392.48" cy="458.06" r="4" fill="#f58518" fill-opacity="0.72"/><circle cx="385.47" cy="478.65" r="4" fill="#f58518" fill-opacity="0.72"/><circle cx="374.63" cy="510.47" r="4" fill="#f58518" fill-opacity="0.72"/><circle cx="460.38" cy="512.65" r="4" fill="#54a24b" fill-opacity="0.72"/><circle cx="495.25" cy="537.25" r="4" fill="#54a24b" fill-opacity="0.72"/><circle cx="373.35" cy="514.21" r="4" fill="#f58518" fill-opacity="0.72"/><circle cx="375.27" cy="508.60" r="4" fill="#f58518" fill-opacity="0.72"/><circle cx="373.99" cy="512.34" r="4" fill="#f58518" fill-opacity="0.72"/><circle cx="368.25" cy="529.19" r="4" fill="#f58518" fill-opacity="0.72"/><circle cx="217.84" cy="435.43" r="4" fill="#f58518" fill-opacity="0.72"/><circle cx="97.25" cy="492.82" r="4" fill="#f58518" fill-opacity="0.72"/><circle cx="99.13" cy="485.33" r="4" fill="#f58518" fill-opacity="0.72"/><circle cx="171.27" cy="522.73" r="4" fill="#f58518" fill-opacity="0.72"/><circle cx="183.39" cy="487.17" r="4" fill="#f58518" fill-opacity="0.72"/><circle cx="125.54" cy="517.16" r="4" fill="#f58518" fill-opacity="0.72"/><circle cx="127.76" cy="505.31" r="4" fill="#f58518" fill-opacity="0.72"/><circle cx="82.55" cy="533.99" r="4" fill="#f58518" fill-opacity="0.72"/><circle cx="88.93" cy="515.28" r="4" fill="#f58518" fill-opacity="0.72"/><circle cx="123.22" cy="515.29" r="4" fill="#f58518" fill-opacity="0.72"/><circle cx="93.39" cy="502.17" r="4" fill="#f58518" fill-opacity="0.72"/><circle cx="95.30" cy="496.56" r="4" fill="#f58518" fill-opacity="0.72"/><circle cx="160.25" cy="426.86" r="4" fill="#f58518" fill-opacity="0.72"/><circle cx="188.50" cy="467.78" r="4" fill="#f58518" fill-opacity="0.72"/><circle cx="148.64" cy="505.78" r="4" fill="#f58518" fill-opacity="0.72"/><circle cx="141.62" cy="526.37" r="4" fill="#f58518" fill-opacity="0.72"/><circle cx="248.52" cy="529.48" r="4" fill="#f58518" fill-opacity="0.72"/><circle cx="259.11" cy="536.05" r="4" fill="#f58518" fill-opacity="0.72"/><circle cx="269.90" cy="530.69" r="4" fill="#f58518" fill-opacity="0.72"/><circle cx="149.91" cy="502.04" r="4" fill="#f58518" fill-opacity="0.72"/><circle cx="278.32" cy="517.67" r="4" fill="#f58518" fill-opacity="0.72"/><circle cx="251.78" cy="485.82" r="4" fill="#f58518" fill-opacity="0.72"/><circle cx="164.34" cy="445.89" r="4" fill="#f58518" fill-opacity="0.72"/><circle cx="124.19" cy="517.14" r="4" fill="#f58518" fill-opacity="0.72"/><circle cx="88.29" cy="517.15" r="4" fill="#f58518" fill-opacity="0.72"/><circle cx="107.41" cy="461.00" r="4" fill="#f58518" fill-opacity="0.72"/><circle cx="183.09" cy="529.44" r="4" fill="#f58518" fill-opacity="0.72"/><circle cx="301.21" cy="537.25" r="4" fill="#f58518" fill-opacity="0.72"/><circle cx="312.00" cy="531.89" r="4" fill="#f58518" fill-opacity="0.72"/><circle cx="259.96" cy="523.60" r="4" fill="#f58518" fill-opacity="0.72"/><circle cx="300.88" cy="478.78" r="4" fill="#f58518" fill-opacity="0.72"/><circle cx="193.29" cy="499.49" r="4" fill="#f58518" fill-opacity="0.72"/><circle cx="236.64" cy="372.22" r="4" fill="#f58518" fill-opacity="0.72"/><circle cx="234.59" cy="497.38" r="4" fill="#f58518" fill-opacity="0.72"/><circle cx="135.70" cy="503.80" r="4" fill="#f58518" fill-opacity="0.72"/><circle cx="137.42" cy="374.91" r="4" fill="#f58518" fill-opacity="0.72"/><circle cx="166.34" cy="522.46" r="4" fill="#f58518" fill-opacity="0.72"/><circle cx="177.99" cy="485.98" r="4" fill="#f58518" fill-opacity="0.72"/><circle cx="275.05" cy="491.49" r="4" fill="#f58518" fill-opacity="0.72"/><circle cx="224.35" cy="510.32" r="4" fill="#f58518" fill-opacity="0.72"/><circle cx="145.29" cy="486.88" r="4" fill="#f58518" fill-opacity="0.72"/><circle cx="151.03" cy="470.04" r="4" fill="#f58518" fill-opacity="0.72"/><circle cx="209.11" cy="524.07" r="4" fill="#f58518" fill-opacity="0.72"/><circle cx="93.39" cy="502.17" r="4" fill="#f58518" fill-opacity="0.72"/><circle cx="98.49" cy="487.20" r="4" fill="#f58518" fill-opacity="0.72"/><circle cx="96.58" cy="492.82" r="4" fill="#f58518" fill-opacity="0.72"/><circle cx="123.22" cy="515.29" r="4" fill="#f58518" fill-opacity="0.72"/><circle cx="95.94" cy="494.69" r="4" fill="#f58518" fill-opacity="0.72"/><circle cx="83.19" cy="532.12" r="4" fill="#f58518" fill-opacity="0.72"/><circle cx="132.42" cy="514.90" r="4" fill="#f58518" fill-opacity="0.72"/><circle cx="90.84" cy="509.66" r="4" fill="#f58518" fill-opacity="0.72"/><circle cx="124.19" cy="517.14" r="4" fill="#f58518" fill-opacity="0.72"/><circle cx="94.03" cy="500.30" r="4" fill="#f58518" fill-opacity="0.72"/><circle cx="97.89" cy="490.95" r="4" fill="#f58518" fill-opacity="0.72"/><circle cx="106.82" cy="464.75" r="4" fill="#f58518" fill-opacity="0.72"/><circle cx="96.91" cy="496.54" r="4" fill="#f58518" fill-opacity="0.72"/><circle cx="154.79" cy="489.09" r="4" fill="#f58518" fill-opacity="0.72"/><circle cx="177.60" cy="522.79" r="4" fill="#f58518" fill-opacity="0.72"/><circle cx="95.94" cy="494.69" r="4" fill="#f58518" fill-opacity="0.72"/><circle cx="93.39" cy="502.17" r="4" fill="#f58518" fill-opacity="0.72"/><circle cx="264.14" cy="479.22" r="4" fill="#f58518" fill-opacity="0.72"/><circle cx="123.22" cy="515.29" r="4" fill="#f58518" fill-opacity="0.72"/><circle cx="212.49" cy="500.32" r="4" fill="#f58518" fill-opacity="0.72"/><circle cx="123.22" cy="515.29" r="4" fill="#f58518" fill-opacity="0.72"/><circle cx="179.28" cy="522.77" r="4" fill="#f58518" fill-opacity="0.72"/><circle cx="275.51" cy="525.65" r="4" fill="#f58518" fill-opacity="0.72"/><circle cx="223.81" cy="452.90" r="4" fill="#f58518" fill-opacity="0.72"/><circle cx="332.60" cy="425.47" r="4" fill="#f58518" fill-opacity="0.72"/><circle cx="202.13" cy="516.54" r="4" fill="#f58518" fill-opacity="0.72"/><circle cx="292.34" cy="505.62" r="4" fill="#f58518" fill-opacity="0.72"/><circle cx="311.70" cy="535.91" r="4" fill="#f58518" fill-opacity="0.72"/><circle cx="326.58" cy="532.09" r="4" fill="#f58518" fill-opacity="0.72"/><circle cx="198.95" cy="525.89" r="4" fill="#f58518" fill-opacity="0.72"/><circle cx="330.30" cy="531.41" r="4" fill="#f58518" fill-opacity="0.72"/><circle cx="335.98" cy="520.92" r="4" fill="#f58518" fill-opacity="0.72"/><circle cx="331.27" cy="533.27" r="4" fill="#f58518" fill-opacity="0.72"/><circle cx="200.22" cy="522.15" r="4" fill="#f58518" fill-opacity="0.72"/><circle cx="199.58" cy="524.02" r="4" fill="#f58518" fill-opacity="0.72"/><circle cx="202.13" cy="516.54" r="4" fill="#f58518" fill-opacity="0.72"/><circle cx="335.98" cy="520.92" r="4" fill="#f58518" fill-opacity="0.72"/><circle cx="204.68" cy="509.05" r="4" fill="#f58518" fill-opacity="0.72"/><circle cx="148.55" cy="344.94" r="4" fill="#f58518" fill-opacity="0.72"/><circle cx="215.13" cy="523.08" r="4" fill="#f58518" fill-opacity="0.72"/><circle cx="223.42" cy="498.75" r="4" fill="#f58518" fill-opacity="0.72"/><circle cx="173.76" cy="497.18" r="4" fill="#f58518" fill-opacity="0.72"/><circle cx="268.85" cy="530.25" r="4" fill="#f58518" fill-opacity="0.72"/><circle cx="92.11" cy="505.92" r="4" fill="#f58518" fill-opacity="0.72"/><circle cx="87.01" cy="520.89" r="4" fill="#f58518" fill-opacity="0.72"/><circle cx="296.06" cy="518.24" r="4" fill="#f58518" fill-opacity="0.72"/><circle cx="276.84" cy="536.63" r="4" fill="#f58518" fill-opacity="0.72"/><circle cx="164.79" cy="515.69" r="4" fill="#f58518" fill-opacity="0.72"/><circle cx="172.44" cy="493.23" r="4" fill="#f58518" fill-opacity="0.72"/><circle cx="96.61" cy="494.70" r="4" fill="#f58518" fill-opacity="0.72"/><circle cx="163.95" cy="482.31" r="4" fill="#f58518" fill-opacity="0.72"/><circle cx="81.91" cy="535.86" r="4" fill="#f58518" fill-opacity="0.72"/><circle cx="278.03" cy="530.09" r="4" fill="#f58518" fill-opacity="0.72"/><circle cx="153.05" cy="505.85" r="4" fill="#f58518" fill-opacity="0.72"/><circle cx="283.71" cy="519.59" r="4" fill="#f58518" fill-opacity="0.72"/><circle cx="258.47" cy="532.73" r="4" fill="#f58518" fill-opacity="0.72"/><circle cx="263.53" cy="536.12" r="4" fill="#f58518" fill-opacity="0.72"/><circle cx="259.44" cy="534.59" r="4" fill="#f58518" fill-opacity="0.72"/><circle cx="146.68" cy="524.56" r="4" fill="#f58518" fill-opacity="0.72"/><circle cx="144.13" cy="532.05" r="4" fill="#f58518" fill-opacity="0.72"/><circle cx="258.47" cy="532.73" r="4" fill="#f58518" fill-opacity="0.72"/><circle cx="235.15" cy="560.00" r="4" fill="#f58518" fill-opacity="0.72"/><circle cx="182.11" cy="490.91" r="4" fill="#f58518" fill-opacity="0.72"/><circle cx="171.91" cy="520.86" r="4" fill="#f58518" fill-opacity="0.72"/><circle cx="103.67" cy="475.99" r="4" fill="#f58518" fill-opacity="0.72"/><circle cx="90.84" cy="509.66" r="4" fill="#f58518" fill-opacity="0.72"/><circle cx="287.38" cy="532.38" r="4" fill="#f58518" fill-opacity="0.72"/><circle cx="166.53" cy="491.32" r="4" fill="#f58518" fill-opacity="0.72"/><circle cx="113.15" cy="444.15" r="4" fill="#f58518" fill-opacity="0.72"/><circle cx="88.93" cy="515.28" r="4" fill="#f58518" fill-opacity="0.72"/><circle cx="124.19" cy="517.14" r="4" fill="#f58518" fill-opacity="0.72"/><circle cx="123.22" cy="515.29" r="4" fill="#f58518" fill-opacity="0.72"/><circle cx="94.06" cy="502.18" r="4" fill="#f58518" fill-opacity="0.72"/><circle cx="170.60" cy="522.72" r="4" fill="#f58518" fill-opacity="0.72"/><circle cx="171.74" cy="525.53" r="4" fill="#f58518" fill-opacity="0.72"/><circle cx="181.94" cy="495.59" r="4" fill="#f58518" fill-opacity="0.72"/><circle cx="80.00" cy="541.48" r="4" fill="#f58518" fill-opacity="0.72"/><circle cx="145.31" cy="509.63" r="4" fill="#f58518" fill-opacity="0.72"/><circle cx="81.28" cy="537.74" r="4" fill="#f58518" fill-opacity="0.72"/><circle cx="99.76" cy="483.46" r="4" fill="#f58518" fill-opacity="0.72"/><circle cx="130.85" cy="501.60" r="4" fill="#f58518" fill-opacity="0.72"/><circle cx="121.44" cy="419.82" r="4" fill="#f58518" fill-opacity="0.72"/><circle cx="106.78" cy="462.87" r="4" fill="#f58518" fill-opacity="0.72"/><circle cx="123.22" cy="515.29" r="4" fill="#f58518" fill-opacity="0.72"/><circle cx="105.50" cy="466.61" r="4" fill="#f58518" fill-opacity="0.72"/><circle cx="110.60" cy="451.64" r="4" fill="#f58518" fill-opacity="0.72"/><circle cx="134.53" cy="505.52" r="4" fill="#f58518" fill-opacity="0.72"/><circle cx="95.94" cy="494.69" r="4" fill="#f58518" fill-opacity="0.72"/><circle cx="124.19" cy="517.14" r="4" fill="#f58518" fill-opacity="0.72"/><circle cx="94.36" cy="504.03" r="4" fill="#f58518" fill-opacity="0.72"/><circle cx="146.52" cy="521.00" r="4" fill="#f58518" fill-opacity="0.72"/><circle cx="94.03" cy="500.30" r="4" fill="#f58518" fill-opacity="0.72"/><circle cx="301.33" cy="510.40" r="4" fill="#f58518" fill-opacity="0.72"/><circle cx="305.16" cy="499.17" r="4" fill="#f58518" fill-opacity="0.72"/><circle cx="399.61" cy="518.51" r="4" fill="#f58518" fill-opacity="0.72"/><circle cx="411.80" cy="540.67" r="4" fill="#f58518" fill-opacity="0.72"/><circle cx="293.04" cy="534.73" r="4" fill="#f58518" fill-opacity="0.72"/><circle cx="329.88" cy="527.26" r="4" fill="#f58518" fill-opacity="0.72"/><circle cx="371.52" cy="528.87" r="4" fill="#f58518" fill-opacity="0.72"/><circle cx="88.29" cy="517.15" r="4" fill="#f58518" fill-opacity="0.72"/><circle cx="123.22" cy="515.29" r="4" fill="#f58518" fill-opacity="0.72"/><circle cx="108.09" cy="461.01" r="4" fill="#f58518" fill-opacity="0.72"/><circle cx="164.56" cy="515.06" r="4" fill="#f58518" fill-opacity="0.72"/><circle cx="95.30" cy="496.56" r="4" fill="#f58518" fill-opacity="0.72"/><circle cx="138.36" cy="501.84" r="4" fill="#f58518" fill-opacity="0.72"/><circle cx="106.78" cy="462.87" r="4" fill="#f58518" fill-opacity="0.72"/><circle cx="93.39" cy="502.17" r="4" fill="#f58518" fill-opacity="0.72"/><circle cx="95.30" cy="496.56" r="4" fill="#f58518" fill-opacity="0.72"/><circle cx="141.22" cy="471.65" r="4" fill="#f58518" fill-opacity="0.72"/><circle cx="171.19" cy="383.68" r="4" fill="#f58518" fill-opacity="0.72"/><circle cx="127.18" cy="402.98" r="4" fill="#f58518" fill-opacity="0.72"/><circle cx="103.59" cy="472.23" r="4" fill="#f58518" fill-opacity="0.72"/><circle cx="89.56" cy="513.40" r="4" fill="#f58518" fill-opacity="0.72"/><circle cx="302.99" cy="531.34" r="4" fill="#f58518" fill-opacity="0.72"/><circle cx="177.90" cy="517.66" r="4" fill="#f58518" fill-opacity="0.72"/><circle cx="250.94" cy="523.04" r="4" fill="#f58518" fill-opacity="0.72"/><circle cx="273.15" cy="524.00" r="4" fill="#f58518" fill-opacity="0.72"/><circle cx="181.73" cy="506.43" r="4" fill="#f58518" fill-opacity="0.72"/><circle cx="183.64" cy="500.81" r="4" fill="#f58518" fill-opacity="0.72"/><circle cx="292.20" cy="536.70" r="4" fill="#f58518" fill-opacity="0.72"/><circle cx="296.25" cy="462.15" r="4" fill="#f58518" fill-opacity="0.72"/><circle cx="306.70" cy="530.66" r="4" fill="#f58518" fill-opacity="0.72"/><circle cx="283.50" cy="499.58" r="4" fill="#f58518" fill-opacity="0.72"/><circle cx="181.73" cy="506.43" r="4" fill="#f58518" fill-opacity="0.72"/><circle cx="175.35" cy="525.14" r="4" fill="#f58518" fill-opacity="0.72"/><circle cx="186.83" cy="491.45" r="4" fill="#f58518" fill-opacity="0.72"/><circle cx="178.54" cy="515.78" r="4" fill="#f58518" fill-opacity="0.72"/><circle cx="306.70" cy="530.66" r="4" fill="#f58518" fill-opacity="0.72"/><circle cx="273.15" cy="524.00" r="4" fill="#f58518" fill-opacity="0.72"/><circle cx="311.41" cy="518.31" r="4" fill="#f58518" fill-opacity="0.72"/><circle cx="96.58" cy="492.82" r="4" fill="#f58518" fill-opacity="0.72"/><circle cx="99.76" cy="483.46" r="4" fill="#f58518" fill-opacity="0.72"/><circle cx="93.08" cy="507.77" r="4" fill="#f58518" fill-opacity="0.72"/><circle cx="104.26" cy="472.24" r="4" fill="#f58518" fill-opacity="0.72"/><circle cx="95.98" cy="496.57" r="4" fill="#f58518" fill-opacity="0.72"/><circle cx="92.11" cy="505.92" r="4" fill="#f58518" fill-opacity="0.72"/><circle cx="90.84" cy="509.66" r="4" fill="#f58518" fill-opacity="0.72"/><circle cx="120.17" cy="423.57" r="4" fill="#f58518" fill-opacity="0.72"/><circle cx="248.66" cy="532.54" r="4" fill="#f58518" fill-opacity="0.72"/><circle cx="212.47" cy="522.28" r="4" fill="#f58518" fill-opacity="0.72"/><circle cx="273.91" cy="519.40" r="4" fill="#f58518" fill-opacity="0.72"/><circle cx="272.94" cy="517.55" r="4" fill="#f58518" fill-opacity="0.72"/><circle cx="128.92" cy="552.43" r="4" fill="#f58518" fill-opacity="0.72"/><circle cx="248.66" cy="532.54" r="4" fill="#f58518" fill-opacity="0.72"/><circle cx="146.44" cy="496.30" r="4" fill="#f58518" fill-opacity="0.72"/><circle cx="157.77" cy="502.37" r="4" fill="#f58518" fill-opacity="0.72"/><circle cx="95.30" cy="496.56" r="4" fill="#f58518" fill-opacity="0.72"/><circle cx="149.29" cy="494.55" r="4" fill="#f58518" fill-opacity="0.72"/><circle cx="148.01" cy="498.29" r="4" fill="#f58518" fill-opacity="0.72"/><circle cx="188.18" cy="380.38" r="4" fill="#f58518" fill-opacity="0.72"/><circle cx="214.68" cy="522.40" r="4" fill="#f58518" fill-opacity="0.72"/><circle cx="103.59" cy="472.23" r="4" fill="#f58518" fill-opacity="0.72"/><circle cx="88.29" cy="517.15" r="4" fill="#f58518" fill-opacity="0.72"/><circle cx="146.72" cy="509.54" r="4" fill="#f58518" fill-opacity="0.72"/><circle cx="258.46" cy="536.07" r="4" fill="#f58518" fill-opacity="0.72"/><circle cx="151.82" cy="494.57" r="4" fill="#f58518" fill-opacity="0.72"/><circle cx="218.18" cy="524.27" r="4" fill="#f58518" fill-opacity="0.72"/><circle cx="239.41" cy="523.37" r="4" fill="#f58518" fill-opacity="0.72"/><circle cx="108.09" cy="461.01" r="4" fill="#f58518" fill-opacity="0.72"/><circle cx="165.53" cy="516.91" r="4" fill="#f58518" fill-opacity="0.72"/><circle cx="166.36" cy="521.62" r="4" fill="#f58518" fill-opacity="0.72"/>
<rect x="735" y="74" width="14" height="14" fill="#4c78a8"/><text x="755" y="86" font-size="13">Cluster 0</text><rect x="735" y="98" width="14" height="14" fill="#f58518"/><text x="755" y="110" font-size="13">Cluster 1</text><rect x="735" y="122" width="14" height="14" fill="#54a24b"/><text x="755" y="134" font-size="13">Cluster 2</text>
</svg>