<svg xmlns="http://www.w3.org/2000/svg" width="1100" height="620" viewBox="0 0 1100 620">
<rect width="100%" height="100%" fill="white"/>
<text x="550.0" y="35" font-size="24" text-anchor="middle" font-family="Arial">Coeficientes principales - regresion logistica</text>
<line x1="720.00" y1="55" x2="720.00" y2="550" stroke="#333"/>
<text x="405" y="88" font-size="12" text-anchor="end">cat__tipologia_simplificada_Bibliotecas para grupos especificos</text><rect x="536.92" y="70" width="183.08" height="24" fill="#e45756"/><text x="528.92" y="88" font-size="12" text-anchor="end">-1.124</text><text x="405" y="128" font-size="12" text-anchor="end">cat__titularidad_simplificada_Privada</text><rect x="620.26" y="110" width="99.74" height="24" fill="#e45756"/><text x="612.26" y="128" font-size="12" text-anchor="end">-0.612</text><text x="405" y="168" font-size="12" text-anchor="end">cat__titularidad_simplificada_Otras titularidades</text><rect x="720.00" y="150" width="87.18" height="24" fill="#54a24b"/><text x="807.18" y="168" font-size="12" text-anchor="start">0.535</text><text x="405" y="208" font-size="12" text-anchor="end">cat__gestion_simplificada_Otras gestiones</text><rect x="720.00" y="190" width="87.18" height="24" fill="#54a24b"/><text x="807.18" y="208" font-size="12" text-anchor="start">0.535</text><text x="405" y="248" font-size="12" text-anchor="end">cat__gestion_simplificada_Universitaria publica</text><rect x="720.00" y="230" width="88.87" height="24" fill="#54a24b"/><text x="808.87" y="248" font-size="12" text-anchor="start">0.546</text><text x="405" y="288" font-size="12" text-anchor="end">cat__titularidad_simplificada_Universitaria publica</text><rect x="720.00" y="270" width="88.87" height="24" fill="#54a24b"/><text x="808.87" y="288" font-size="12" text-anchor="start">0.546</text><text x="405" y="328" font-size="12" text-anchor="end">cat__gestion_simplificada_Universitaria privada</text><rect x="720.00" y="310" width="142.82" height="24" fill="#54a24b"/><text x="862.82" y="328" font-size="12" text-anchor="start">0.877</text><text x="405" y="368" font-size="12" text-anchor="end">cat__titularidad_simplificada_Universitaria privada</text><rect x="720.00" y="350" width="142.82" height="24" fill="#54a24b"/><text x="862.82" y="368" font-size="12" text-anchor="start">0.877</text><text x="405" y="408" font-size="12" text-anchor="end">bin__tiene_web</text><rect x="720.00" y="390" width="189.31" height="24" fill="#54a24b"/><text x="909.31" y="408" font-size="12" text-anchor="start">1.163</text><text x="405" y="448" font-size="12" text-anchor="end">cat__tipologia_simplificada_Bibliotecas universitarias</text><rect x="720.00" y="430" width="213.74" height="24" fill="#54a24b"/><text x="933.74" y="448" font-size="12" text-anchor="start">1.313</text><text x="405" y="488" font-size="12" text-anchor="end">cat__titularidad_simplificada_Poder judicial</text><rect x="720.00" y="470" width="271.85" height="24" fill="#54a24b"/><text x="991.85" y="488" font-size="12" text-anchor="start">1.669</text><text x="405" y="528" font-size="12" text-anchor="end">cat__tipologia_simplificada_Bibliotecas publicas</text><rect x="720.00" y="510" width="300.00" height="24" fill="#54a24b"/><text x="1020.00" y="528" font-size="12" text-anchor="start">1.842</text>
<text x="560.0" y="595" font-size="13" text-anchor="middle">Menor probabilidad de catalogo</text>
<text x="880.0" y="595" font-size="13" text-anchor="middle">Mayor probabilidad de catalogo</text>
</svg>