<svg xmlns="http://www.w3.org/2000/svg" width="900" height="520" viewBox="0 0 900 520">
<rect width="100%" height="100%" fill="white"/>
<text x="450.0" y="35" font-size="22" text-anchor="middle" font-family="Arial">bibliotecas_municipio - histograma</text>
<line x1="80" y1="440" x2="860" y2="440" stroke="#333"/>
<line x1="80" y1="70" x2="80" y2="440" stroke="#333"/>
<rect x="84.55" y="70.00" width="55.90" height="370.00" fill="#4c78a8"/><rect x="149.55" y="440.00" width="55.90" height="0.00" fill="#4c78a8"/><rect x="214.55" y="440.00" width="55.90" height="0.00" fill="#4c78a8"/><rect x="279.55" y="440.00" width="55.90" height="0.00" fill="#4c78a8"/><rect x="344.55" y="440.00" width="55.90" height="0.00" fill="#4c78a8"/><rect x="409.55" y="440.00" width="55.90" height="0.00" fill="#4c78a8"/><rect x="474.55" y="440.00" width="55.90" height="0.00" fill="#4c78a8"/><rect x="539.55" y="440.00" width="55.90" height="0.00" fill="#4c78a8"/><rect x="604.55" y="440.00" width="55.90" height="0.00" fill="#4c78a8"/><rect x="669.55" y="440.00" width="55.90" height="0.00" fill="#4c78a8"/><rect x="734.55" y="440.00" width="55.90" height="0.00" fill="#4c78a8"/><rect x="799.55" y="180.39" width="55.90" height="259.61" fill="#4c78a8"/>
<text x="68" y="75" font-size="12" text-anchor="end">305</text>
<text x="68" y="440" font-size="12" text-anchor="end">0</text>
<text x="80" y="485" font-size="12" text-anchor="middle">1.00</text><text x="860" y="485" font-size="12" text-anchor="middle">214.00</text>
<text x="450.0" y="510" font-size="14" text-anchor="middle">Valor</text>
<text x="20" y="260.0" font-size="14" text-anchor="middle" transform="rotate(-90 20 260.0)">Frecuencia</text>
</svg>