<svg xmlns="http://www.w3.org/2000/svg" width="900" height="520" viewBox="0 0 900 520">
<rect width="100%" height="100%" fill="white"/>
<text x="450.0" y="35" font-size="24" text-anchor="middle" font-family="Arial">Perfil de clusters K-Means</text>
<line x1="85" y1="440.00" x2="830" y2="440.00" stroke="#ddd"/><text x="78" y="444.00" font-size="11" text-anchor="end">0%</text><line x1="85" y1="353.09" x2="830" y2="353.09" stroke="#ddd"/><text x="78" y="357.09" font-size="11" text-anchor="end">20%</text><line x1="85" y1="266.19" x2="830" y2="266.19" stroke="#ddd"/><text x="78" y="270.19" font-size="11" text-anchor="end">40%</text><line x1="85" y1="179.28" x2="830" y2="179.28" stroke="#ddd"/><text x="78" y="183.28" font-size="11" text-anchor="end">60%</text><line x1="85" y1="92.38" x2="830" y2="92.38" stroke="#ddd"/><text x="78" y="96.38" font-size="11" text-anchor="end">80%</text><line x1="85" y1="5.47" x2="830" y2="5.47" stroke="#ddd"/><text x="78" y="9.47" font-size="11" text-anchor="end">100%</text>
<line x1="90" y1="440" x2="830" y2="440" stroke="#333"/>
<line x1="90" y1="70" x2="90" y2="440" stroke="#333"/>
<rect x="165.33" y="423.27" width="48.00" height="16.73" fill="#4c78a8"/><text x="189.33" y="417.27" font-size="11" text-anchor="middle">3.9%</text><rect x="213.33" y="135.83" width="48.00" height="304.17" fill="#54a24b"/><text x="237.33" y="129.83" font-size="11" text-anchor="middle">70.0%</text><text x="213.33" y="472" font-size="13" text-anchor="middle">Cluster 0</text><text x="213.33" y="490" font-size="11" text-anchor="middle">20 casos</text><rect x="412.00" y="186.32" width="48.00" height="253.68" fill="#4c78a8"/><text x="436.00" y="180.32" font-size="11" text-anchor="middle">58.4%</text><rect x="460.00" y="70.00" width="48.00" height="370.00" fill="#54a24b"/><text x="484.00" y="64.00" font-size="11" text-anchor="middle">85.2%</text><text x="460.00" y="472" font-size="13" text-anchor="middle">Cluster 1</text><text x="460.00" y="490" font-size="11" text-anchor="middle">303 casos</text><rect x="658.67" y="275.92" width="48.00" height="164.08" fill="#4c78a8"/><text x="682.67" y="269.92" font-size="11" text-anchor="middle">37.8%</text><rect x="706.67" y="98.59" width="48.00" height="341.41" fill="#54a24b"/><text x="730.67" y="92.59" font-size="11" text-anchor="middle">78.6%</text><text x="706.67" y="472" font-size="13" text-anchor="middle">Cluster 2</text><text x="706.67" y="490" font-size="11" text-anchor="middle">196 casos</text>
<rect x="640" y="58" width="14" height="14" fill="#4c78a8"/>
<text x="660" y="70" font-size="13">Peso del cluster</text>
<rect x="640" y="82" width="14" height="14" fill="#54a24b"/>
<text x="660" y="94" font-size="13">% con catalogo</text>
</svg>